<?xml version="1.0" encoding="utf-8"?>
<!-- Generator: Adobe Illustrator 25.2.1, SVG Export Plug-In . SVG Version: 6.00 Build 0)  -->
<svg version="1.1" id="Layer_1" xmlns="http://www.w3.org/2000/svg" xmlns:xlink="http://www.w3.org/1999/xlink" x="0px" y="0px"
	 viewBox="0 0 109 109" style="enable-background:new 0 0 109 109;" xml:space="preserve">
<style type="text/css">
	.st0{fill-rule:evenodd;clip-rule:evenodd;fill:#BC3F8B;}
	.st1{fill:#FFFFFF;}
</style>
<desc>Created with Sketch.</desc>
<g id="fps-rich-text">
	<g id="FEB_x2F_component_x2F_cards">
		<g id="Group-2">
			<g id="Group">
				<path id="Rectangle_1_" class="st0" d="M0,19C0,8.5,8.5,0,19,0h71c10.5,0,19,8.5,19,19v71c0,10.5-8.5,19-19,19H19
					c-10.5,0-19-8.5-19-19"/>
			</g>
		</g>
	</g>
</g>
<g>
	<path class="st1" d="M10.1,56.2h17.5v3.7H10.1V56.2z M10.9,48.2h17.5v3.7H10.9V48.2z M15.3,41.7h3.3l-3.1,25.6h-3.4L15.3,41.7z
		 M22.8,41.7h3.3L23,67.3h-3.4L22.8,41.7z"/>
	<path class="st1" d="M33.3,41.6h6.1l2.5,9.1l0.9,3.6h0.2l0.9-3.6l2.5-9.1h6.1v25.7h-4.9v-8c0-2.9,0.5-9.2,0.8-11.9h-0.1l-2,6.9
		l-2,6.2h-2.8l-2-6.2l-1.8-6.9h-0.1c0.3,2.8,0.8,9,0.8,11.9v8h-4.8V41.6z"/>
	<path class="st1" d="M57.7,39.7h5.8v15.9h0.2l7.2-7.9h6.3L63.5,62.4v4.9h-5.8V39.7z M65.8,58.4l3.3-3.6l8.6,12.5h-6.3L65.8,58.4z"
		/>
	<path class="st1" d="M80.2,57.5c0-6.4,4.1-10.3,8.4-10.3c2.1,0,3.6,0.8,4.9,2.1h0.1l-0.3-3v-6.7h5.8v27.6h-4.7l-0.4-2h-0.1
		c-1.4,1.4-3.5,2.5-5.4,2.5C83.5,67.8,80.2,63.9,80.2,57.5z M93.4,61.2v-7.9c-1.1-1-2.1-1.3-3.3-1.3c-2.1,0-3.9,1.7-3.9,5.4
		c0,3.8,1.4,5.6,3.8,5.6C91.3,63,92.4,62.5,93.4,61.2z"/>
</g>
</svg>
