<?xml version="1.0" encoding="utf-8"?>
<!-- Generator: Adobe Illustrator 26.0.2, SVG Export Plug-In . SVG Version: 6.00 Build 0)  -->
<svg version="1.1" id="Layer_1" xmlns="http://www.w3.org/2000/svg" xmlns:xlink="http://www.w3.org/1999/xlink" x="0px" y="0px"
	 viewBox="0 0 109 109" style="enable-background:new 0 0 109 109;" xml:space="preserve">
<style type="text/css">
	.st0{fill-rule:evenodd;clip-rule:evenodd;fill:#244896;}
	.st1{fill-rule:evenodd;clip-rule:evenodd;fill:#FFFFFF;}
</style>
<desc>Created with Sketch.</desc>
<path id="Rectangle" class="st0" d="M19,0h71c10.5,0,19,8.5,19,19v71c0,10.5-8.5,19-19,19H19c-10.5,0-19-8.5-19-19V19
	C0,8.5,8.5,0,19,0z"/>
<g id="_x2E_platform_x2F_icon_x2F_move">
	<g id="Combined-Shape_00000028291201694055080010000002417841029456332942_">
		<path class="st1" d="M65.1,30.9c1.2-1.2,3.1-1.2,4.3,0l0,0l12.1,12.1c0.1,0.1,0.2,0.2,0.2,0.2l0,0c0,0,0,0.1,0.1,0.1
			c0.1,0.1,0.1,0.1,0.2,0.2c0,0,0,0.1,0.1,0.1c0,0.1,0.1,0.1,0.1,0.2c0,0.1,0,0.1,0.1,0.2c0,0.1,0,0.1,0.1,0.2c0,0,0,0.1,0,0.1
			c0,0.1,0,0.1,0,0.2c0,0.1,0,0.1,0,0.2c0,0.1,0,0.3,0,0.5l0-0.3c0,0.1,0,0.1,0,0.2l0,0.1c0,0,0,0,0,0.1l0,0l0,0.1c0,0,0,0,0,0.1
			l0,0c0,0,0,0.1,0,0.1l0,0.1l0,0l0,0.1c0,0,0,0,0,0.1c0,0.1,0,0.1,0,0.2c0,0,0,0.1,0,0.1c0,0.1,0,0.1-0.1,0.2c0,0.1,0,0.1-0.1,0.2
			c0,0.1-0.1,0.1-0.1,0.2c0,0,0,0.1-0.1,0.1c0,0,0,0,0,0l-0.1,0.2c-0.1,0.1-0.2,0.2-0.3,0.4l0.2-0.3c0,0,0,0,0,0l-0.2,0.2L69.4,59.3
			c-1.2,1.2-3.1,1.2-4.3,0c-1.2-1.2-1.2-3.1,0-4.3l0,0l6.8-6.8c-14.6,0.4-20.5,2.1-26.5,8.1c-5.6,5.5-8.3,11.7-8.3,18.9
			c0,1.7-1.3,3-3,3c-1.7,0-3-1.3-3-3c0-8.9,3.4-16.7,10.1-23.2c7.5-7.4,14.5-9.5,30.9-9.8l-7-7C63.9,34,63.9,32.1,65.1,30.9z"/>
	</g>
</g>
</svg>
