<?xml version="1.0" encoding="UTF-8"?>
<svg width="109px" height="109px" viewBox="0 0 109 109" version="1.1" xmlns="http://www.w3.org/2000/svg" xmlns:xlink="http://www.w3.org/1999/xlink">
    <!-- Generator: Sketch 63.1 (92452) - https://sketch.com -->
    <title>fps-cards</title>
    <desc>Created with Sketch.</desc>
    <g id="Symbols" stroke="none" stroke-width="1" fill="none" fill-rule="evenodd">
        <g id="FEB/component/cards">
            <g id="fps-cards">
                <g id="Group">
                    <rect id="Rectangle" fill="#49B6D4" x="0" y="0" width="109" height="109" rx="19"></rect>
                    <g id=".platform/icon/grater" transform="translate(11.000000, 12.000000)" fill="#FFFFFF">
                        <g id="Combined-Shape">
                            <path d="M32.9375,51.0625 C34.0420695,51.0625 34.9375,51.9579305 34.9375,53.0625 L34.9375,59.8125 C34.9375,60.9170695 34.0420695,61.8125 32.9375,61.8125 L26.1875,61.8125 C25.0829305,61.8125 24.1875,60.9170695 24.1875,59.8125 L24.1875,53.0625 C24.1875,51.9579305 25.0829305,51.0625 26.1875,51.0625 L32.9375,51.0625 Z M59.8125,51.0625 C60.9170695,51.0625 61.8125,51.9579305 61.8125,53.0625 L61.8125,59.8125 C61.8125,60.9170695 60.9170695,61.8125 59.8125,61.8125 L53.0625,61.8125 C51.9579305,61.8125 51.0625,60.9170695 51.0625,59.8125 L51.0625,53.0625 C51.0625,51.9579305 51.9579305,51.0625 53.0625,51.0625 L59.8125,51.0625 Z M32.9375,24.1875 C34.0420695,24.1875 34.9375,25.0829305 34.9375,26.1875 L34.9375,32.9375 C34.9375,34.0420695 34.0420695,34.9375 32.9375,34.9375 L26.1875,34.9375 C25.0829305,34.9375 24.1875,34.0420695 24.1875,32.9375 L24.1875,26.1875 C24.1875,25.0829305 25.0829305,24.1875 26.1875,24.1875 L32.9375,24.1875 Z M59.8125,24.1875 C60.9170695,24.1875 61.8125,25.0829305 61.8125,26.1875 L61.8125,32.9375 C61.8125,34.0420695 60.9170695,34.9375 59.8125,34.9375 L53.0625,34.9375 C51.9579305,34.9375 51.0625,34.0420695 51.0625,32.9375 L51.0625,26.1875 C51.0625,25.0829305 51.9579305,24.1875 53.0625,24.1875 L59.8125,24.1875 Z"></path>
                        </g>
                    </g>
                </g>
            </g>
        </g>
    </g>
</svg>