<?xml version="1.0" encoding="UTF-8"?>
<svg width="109px" height="109px" viewBox="0 0 109 109" version="1.1" xmlns="http://www.w3.org/2000/svg" xmlns:xlink="http://www.w3.org/1999/xlink">
    <!-- Generator: Sketch 63.1 (92452) - https://sketch.com -->
    <title>fps-rich-text</title>
    <desc>Created with Sketch.</desc>
    <g id="Symbols" stroke="none" stroke-width="1" fill="none" fill-rule="evenodd">
        <g id="FEB/component/rich-text">
            <g id="fps-rich-text">
                <g id="FEB/component/cards">
                    <g id="Group-2">
                        <g id="Group">
                            <rect id="Rectangle" fill="#00C197" x="0" y="0" width="109" height="109" rx="19"></rect>
                            <g id=".platform/icon/rich" transform="translate(11.000000, 11.000000)" fill="#FFFFFF">
                                <g id="Combined-Shape-2" transform="translate(19.250000, 19.250000)">
                                    <path d="M48.5,39.28375 C49.0522847,39.28375 49.5,39.7314653 49.5,40.28375 L49.5,43.78375 C49.5,44.3360347 49.0522847,44.78375 48.5,44.78375 L1,44.78375 C0.44771525,44.78375 6.76353751e-17,44.3360347 0,43.78375 L0,40.28375 C-6.76353751e-17,39.7314653 0.44771525,39.28375 1,39.28375 L48.5,39.28375 Z M48.5,25.53375 C49.0522847,25.53375 49.5,25.9814653 49.5,26.53375 L49.5,30.03375 C49.5,30.5860347 49.0522847,31.03375 48.5,31.03375 L1,31.03375 C0.44771525,31.03375 6.76353751e-17,30.5860347 0,30.03375 L0,26.53375 C-6.76353751e-17,25.9814653 0.44771525,25.53375 1,25.53375 L48.5,25.53375 Z M48.5,11.78375 C49.0522847,11.78375 49.5,12.2314653 49.5,12.78375 L49.5,16.28375 C49.5,16.8360347 49.0522847,17.28375 48.5,17.28375 L25.75,17.28375 C25.1977153,17.28375 24.75,16.8360347 24.75,16.28375 L24.75,12.78375 C24.75,12.2314653 25.1977153,11.78375 25.75,11.78375 L48.5,11.78375 Z M6.58625,20.03375 L6.58625,12.6225 L7.76875,12.6225 C8.12625,12.6225 8.40125,12.6797917 8.59375,12.794375 C8.78625,12.9089583 8.96041667,13.09 9.11625,13.3375 L9.11625,13.3375 L12.44375,19.15375 C12.7829167,19.7404167 13.3420833,20.03375 14.12125,20.03375 L14.12125,20.03375 L18.32875,20.03375 L14.06625,13.0625 C13.8554167,12.7416667 13.6170833,12.464375 13.35125,12.230625 C13.0854167,11.996875 12.80125,11.8020833 12.49875,11.64625 C13.1495833,11.39875 13.7247917,11.0825 14.224375,10.6975 C14.7239583,10.3125 15.1433333,9.87479167 15.4825,9.384375 C15.8216667,8.89395833 16.0783333,8.36 16.2525,7.7825 C16.4266667,7.205 16.51375,6.59083333 16.51375,5.94 C16.51375,5.0875 16.3670833,4.29916667 16.07375,3.575 C15.7804167,2.85083333 15.310625,2.22291667 14.664375,1.69125 C14.018125,1.15958333 13.1839583,0.744791667 12.161875,0.446875 C11.1397917,0.148958333 9.90458333,-1.00230935e-12 8.45625,-1.00230935e-12 L8.45625,-1.00230935e-12 L1.93875,-1.00230935e-12 L1.93875,20.03375 L6.58625,20.03375 Z M8.45625,9.41875 L6.58625,9.41875 L6.58625,3.47875 L8.45625,3.47875 C9.65708333,3.47875 10.5439583,3.72625 11.116875,4.22125 C11.6897917,4.71625 11.97625,5.40375 11.97625,6.28375 C11.97625,6.72375 11.9120833,7.13395833 11.78375,7.514375 C11.6554167,7.89479167 11.4491667,8.22708333 11.165,8.51125 C10.8808333,8.79541667 10.5164583,9.01770833 10.071875,9.178125 C9.62729167,9.33854167 9.08875,9.41875 8.45625,9.41875 L8.45625,9.41875 Z" id="Combined-Shape"></path>
                                </g>
                            </g>
                        </g>
                    </g>
                </g>
            </g>
        </g>
    </g>
</svg>