<?xml version="1.0" encoding="UTF-8"?>
<svg width="109px" height="109px" viewBox="0 0 109 109" version="1.1" xmlns="http://www.w3.org/2000/svg" xmlns:xlink="http://www.w3.org/1999/xlink">
    <!-- Generator: Sketch 63.1 (92452) - https://sketch.com -->
    <title>fps-profile</title>
    <desc>Created with Sketch.</desc>
    <g id="Symbols" stroke="none" stroke-width="1" fill="none" fill-rule="evenodd">
        <g id="FEB/component/account" transform="translate(0.000000, 1.000000)">
            <g id="fps-profile" transform="translate(0.000000, -1.000000)">
                <g id="Group">
                    <rect id="Rectangle" fill="#ECA910" x="0" y="0" width="109" height="109" rx="19"></rect>
                    <g id=".platform/icon/user" transform="translate(11.000000, 12.000000)" fill="#FFFFFF">
                        <g id="Combined-Shape">
                            <path d="M43,21.5 C50.4213263,21.5 56.4375,27.5161737 56.4375,34.9375 C56.4375,39.0233777 54.6139065,42.6833323 51.7362195,45.1478639 C57.7265708,48.2937461 61.8125,54.5759631 61.8125,61.8125 C61.8125,63.2967653 60.6092653,64.5 59.125,64.5 C57.6407347,64.5 56.4375,63.2967653 56.4375,61.8125 C56.4375,54.3911737 50.4213263,48.375 43,48.375 C35.5786737,48.375 29.5625,54.3911737 29.5625,61.8125 C29.5625,63.2967653 28.3592653,64.5 26.875,64.5 C25.3907347,64.5 24.1875,63.2967653 24.1875,61.8125 C24.1875,54.5759631 28.2734292,48.2937461 34.2641212,45.1470153 C31.3860935,42.6833323 29.5625,39.0233777 29.5625,34.9375 C29.5625,27.5161737 35.5786737,21.5 43,21.5 Z M43,26.875 C38.5472042,26.875 34.9375,30.4847042 34.9375,34.9375 C34.9375,39.3902958 38.5472042,43 43,43 C47.4527958,43 51.0625,39.3902958 51.0625,34.9375 C51.0625,30.4847042 47.4527958,26.875 43,26.875 Z"></path>
                        </g>
                    </g>
                </g>
            </g>
        </g>
    </g>
</svg>