<?xml version="1.0" encoding="utf-8"?>
<!-- Generator: Adobe Illustrator 26.0.1, SVG Export Plug-In . SVG Version: 6.00 Build 0)  -->
<svg version="1.1" id="Layer_1" xmlns="http://www.w3.org/2000/svg" xmlns:xlink="http://www.w3.org/1999/xlink" x="0px" y="0px"
	 viewBox="0 0 109 109" style="enable-background:new 0 0 109 109;" xml:space="preserve">
<style type="text/css">
	.st0{fill-rule:evenodd;clip-rule:evenodd;fill:#57BF97;}
	.st1{fill:#FFFFFF;}
</style>
<desc>Created with Sketch.</desc>
<g id="Symbols">
	<g id="FEB_x2F_component_x2F_signin">
		<g id="Group">
			<path id="Rectangle" class="st0" d="M19,0h71c10.5,0,19,8.5,19,19v71c0,10.5-8.5,19-19,19H19c-10.5,0-19-8.5-19-19V19
				C0,8.5,8.5,0,19,0z"/>
			<g>
				<path class="st1" d="M37.8,30.3H25.6c-0.5,0-1,0.5-1,1.1v25c0,0.6,0.4,1.1,1,1.1h12.2c0.5,0,1-0.5,1-1.1v-25
					C38.7,30.8,38.3,30.3,37.8,30.3z"/>
				<path class="st1" d="M59.7,30.3H47.5c-0.5,0-1,0.5-1,1.1v53c0,0.6,0.4,1.1,1,1.1h12.2c0.5,0,1-0.5,0.9-1.1v-53
					C60.7,30.8,60.2,30.3,59.7,30.3z"/>
				<path class="st1" d="M81.5,30.3H69.3c-0.5,0-1,0.5-1,1.1v40c0,0.6,0.4,1.1,1,1.1h12.2c0.5,0,1-0.5,0.9-1.1v-40
					C82.5,30.8,82,30.3,81.5,30.3z"/>
			</g>
		</g>
	</g>
</g>
</svg>
