<?xml version="1.0" encoding="utf-8"?>
<!-- Generator: Adobe Illustrator 25.2.1, SVG Export Plug-In . SVG Version: 6.00 Build 0)  -->
<svg version="1.1" id="Layer_1" xmlns="http://www.w3.org/2000/svg" xmlns:xlink="http://www.w3.org/1999/xlink" x="0px" y="0px"
	 viewBox="0 0 109 109" style="enable-background:new 0 0 109 109;" xml:space="preserve">
<style type="text/css">
	.st0{fill-rule:evenodd;clip-rule:evenodd;fill:#ECA83B;}
	.st1{fill:#FFFFFF;}
</style>
<desc>Created with Sketch.</desc>
<g id="fps-rich-text">
	<g id="FEB_x2F_component_x2F_cards">
		<g id="Group-2">
			<g id="Group">
				<path id="Rectangle_1_" class="st0" d="M0,19C0,8.5,8.5,0,19,0h71c10.5,0,19,8.5,19,19v71c0,10.5-8.5,19-19,19H19
					c-10.5,0-19-8.5-19-19"/>
			</g>
		</g>
	</g>
</g>
<g>
	<path class="st1" d="M17.3,57.3v-3.4l13-8.4v4.4l-8.9,5.5v0.2l8.9,5.5v4.5L17.3,57.3z"/>
	<path class="st1" d="M35.9,43.2h4.9v5.7l-0.3,3.2h0.1c1.2-1.3,3.1-2.5,5.5-2.5c3.7,0,5.3,2.5,5.3,6.8v10.3h-4.9V57
		c0-2.2-0.7-3.2-2.5-3.2c-1.3,0-2.2,0.6-3.4,1.7v11.1h-4.9L35.9,43.2L35.9,43.2z"/>
	<path class="st1" d="M56.2,62.7h5.7V50.4h-4.7v-3.1c2.9-0.4,4.4-0.9,6-2h3.6v17.3h4.8v4H56.2V62.7z"/>
	<path class="st1" d="M76.9,61.2l8.9-5.5v-0.2l-8.9-5.6v-4.5l13,8.4v3.4l-13,8.4V61.2z"/>
</g>
</svg>
