<?xml version="1.0" encoding="utf-8"?>
<!-- Generator: Adobe Illustrator 25.2.1, SVG Export Plug-In . SVG Version: 6.00 Build 0)  -->
<svg version="1.1" id="Layer_1" xmlns="http://www.w3.org/2000/svg" xmlns:xlink="http://www.w3.org/1999/xlink" x="0px" y="0px"
	 viewBox="0 0 109 109" style="enable-background:new 0 0 109 109;" xml:space="preserve">
<style type="text/css">
	.st0{fill-rule:evenodd;clip-rule:evenodd;fill:#ECA83B;}
	.st1{fill:#FFFFFF;}
</style>
<desc>Created with Sketch.</desc>
<g id="fps-rich-text">
	<g id="FEB_x2F_component_x2F_cards">
		<g id="Group-2">
			<g id="Group">
				<path id="Rectangle_1_" class="st0" d="M0,19C0,8.5,8.5,0,19,0h71c10.5,0,19,8.5,19,19v71c0,10.5-8.5,19-19,19H19
					c-10.5,0-19-8.5-19-19"/>
			</g>
		</g>
	</g>
</g>
<g>
	<path class="st1" d="M11.9,56.7v-4l15.3-9.9V48l-10.5,6.5v0.2l10.5,6.5v5.3L11.9,56.7z"/>
	<path class="st1" d="M33.9,40.1h5.8v6.7l-0.3,3.8h0.1c1.4-1.5,3.6-2.9,6.5-2.9c4.4,0,6.3,3,6.3,8v12.1h-5.8V56.4
		c0-2.6-0.8-3.8-2.9-3.8c-1.5,0-2.6,0.7-4,2v13.1h-5.8V40.1H33.9z"/>
	<path class="st1" d="M57.8,63.1h6.7V48.6H59V45c3.4-0.5,5.2-1.1,7.1-2.3h4.3v20.4h5.7v4.7H57.8V63.1z"/>
	<path class="st1" d="M82.2,61.3l10.5-6.5v-0.2L82.2,48v-5.3l15.3,9.9v4l-15.3,9.9V61.3z"/>
</g>
</svg>
