<?xml version="1.0" encoding="UTF-8"?>
<svg width="109px" height="109px" viewBox="0 0 109 109" version="1.1" xmlns="http://www.w3.org/2000/svg" xmlns:xlink="http://www.w3.org/1999/xlink">
    <!-- Generator: Sketch 63.1 (92452) - https://sketch.com -->
    <title>fps-table</title>
    <desc>Created with Sketch.</desc>
    <g id="Symbols" stroke="none" stroke-width="1" fill="none" fill-rule="evenodd">
        <g id="FEB/component/table">
            <g id="fps-table">
                <g id="Group-2">
                    <g id="Group">
                        <rect id="Rectangle" fill="#F08795" x="0" y="0" width="109" height="109" rx="19"></rect>
                        <g id=".platform/icon/database" transform="translate(11.000000, 12.000000)" fill="#FFFFFF">
                            <g id="Combined-Shape">
                                <path d="M56.4375,21.5 C60.8902958,21.5 64.5,25.1097042 64.5,29.5625 L64.5,59.125 C64.5,63.5777958 60.8902958,67.1875 56.4375,67.1875 L29.5625,67.1875 C25.1097042,67.1875 21.5,63.5777958 21.5,59.125 L21.5,29.5625 C21.5,25.1097042 25.1097042,21.5 29.5625,21.5 L56.4375,21.5 Z M59.125,53.75 L26.875,53.75 L26.875,59.125 C26.875,60.6092653 28.0782347,61.8125 29.5625,61.8125 L56.4375,61.8125 C57.9217653,61.8125 59.125,60.6092653 59.125,59.125 L59.125,53.75 Z M59.125,40.3125 L26.875,40.3125 L26.875,48.375 L59.125,48.375 L59.125,40.3125 Z M56.4375,26.875 L29.5625,26.875 C28.0782347,26.875 26.875,28.0782347 26.875,29.5625 L26.875,34.9375 L59.125,34.9375 L59.125,29.5625 C59.125,28.0782347 57.9217653,26.875 56.4375,26.875 Z"></path>
                            </g>
                        </g>
                    </g>
                </g>
            </g>
        </g>
    </g>
</svg>