<?xml version="1.0" encoding="utf-8"?>
<!-- Generator: Adobe Illustrator 25.4.1, SVG Export Plug-In . SVG Version: 6.00 Build 0)  -->
<svg version="1.1" id="Layer_1" xmlns="http://www.w3.org/2000/svg" xmlns:xlink="http://www.w3.org/1999/xlink" x="0px" y="0px"
	 viewBox="0 0 109 109" style="enable-background:new 0 0 109 109;" xml:space="preserve">
<style type="text/css">
	.st0{fill-rule:evenodd;clip-rule:evenodd;fill:#0D2D53;}
	.st1{fill-rule:evenodd;clip-rule:evenodd;fill:#FAFDFF;}
</style>
<desc>Created with Sketch.</desc>
<g id="Group">
	<path id="Rectangle" class="st0" d="M19,0h71c10.5,0,19,8.5,19,19v71c0,10.5-8.5,19-19,19H19c-10.5,0-19-8.5-19-19V19
		C0,8.5,8.5,0,19,0z"/>
	<g id="_x2E_platform_x2F_icon_x2F_clocks">
		<g id="Combined-Shape">
			<path class="st1" d="M54.8,26C70.9,26,84,39.1,84,55.2S70.9,84.5,54.8,84.5S25.5,71.4,25.5,55.2S38.6,26,54.8,26z M54.8,32.5
				C42.2,32.5,32,42.7,32,55.2S42.2,78,54.8,78s22.8-10.2,22.8-22.8S67.3,32.5,54.8,32.5z M54.8,39c1.8,0,3.2,1.5,3.2,3.2v11.7
				l8.8,8.8c1.3,1.3,1.3,3.3,0,4.6s-3.3,1.3-4.6,0l-9.7-9.7l-0.2-0.3c0,0,0,0,0,0l0.3,0.3c-0.1-0.1-0.2-0.2-0.3-0.4
				C52.1,57.1,52,57,52,56.9c0,0-0.1-0.1-0.1-0.1c0-0.1-0.1-0.1-0.1-0.2c0-0.1-0.1-0.1-0.1-0.2c0-0.1,0-0.1-0.1-0.2c0,0,0-0.1,0-0.1
				c0-0.1,0-0.1-0.1-0.2c0-0.1,0-0.1,0-0.2c0-0.1,0-0.1,0-0.2c0-0.1,0-0.2,0-0.2c0,0,0,0,0-0.1v-13C51.5,40.5,53,39,54.8,39z"/>
		</g>
	</g>
</g>
</svg>
