<?xml version="1.0" encoding="utf-8"?>
<!-- Generator: Adobe Illustrator 25.2.1, SVG Export Plug-In . SVG Version: 6.00 Build 0)  -->
<svg version="1.1" id="Layer_1" xmlns="http://www.w3.org/2000/svg" xmlns:xlink="http://www.w3.org/1999/xlink" x="0px" y="0px"
	 viewBox="0 0 109 109" style="enable-background:new 0 0 109 109;" xml:space="preserve">
<style type="text/css">
	.st0{fill-rule:evenodd;clip-rule:evenodd;fill:#BC3F8B;}
	.st1{fill:#FFFFFF;}
</style>
<desc>Created with Sketch.</desc>
<g id="fps-rich-text">
	<g id="FEB_x2F_component_x2F_cards">
		<g id="Group-2">
			<g id="Group">
				<path id="Rectangle_1_" class="st0" d="M0,19C0,8.5,8.5,0,19,0h71c10.5,0,19,8.5,19,19v71c0,10.5-8.5,19-19,19H19
					c-10.5,0-19-8.5-19-19"/>
			</g>
		</g>
	</g>
</g>
<g>
	<path class="st1" d="M17.6,56.9h13.7v2.9H17.6V56.9z M18.2,50.6H32v2.9H18.2V50.6z M21.7,45.5h2.6l-2.4,20.1h-2.7L21.7,45.5z
		 M27.6,45.5h2.6l-2.4,20.1H25L27.6,45.5z"/>
	<path class="st1" d="M35.8,45.4h4.8l2,7.1l0.7,2.8h0.2l0.7-2.8l2-7.1h4.8v20.2H47v-6.3c0-2.3,0.4-7.2,0.6-9.3h-0.1L46,55.4
		l-1.6,4.9h-2.2l-1.6-4.9L39.3,50h-0.1c0.2,2.2,0.6,7.1,0.6,9.3v6.3H36V45.4H35.8z"/>
	<path class="st1" d="M55,43.9h4.6v12.5h0.2l5.7-6.2h4.9L59.5,61.7v3.8H55V43.9z M61.3,58.6l2.6-2.8l6.8,9.8h-4.9L61.3,58.6z"/>
	<path class="st1" d="M72.7,57.9c0-5,3.2-8.1,6.6-8.1c1.6,0,2.8,0.6,3.8,1.6h0.1l-0.2-2.4v-5.3h4.6v21.7h-3.7l-0.3-1.6h-0.1
		c-1.1,1.1-2.7,2-4.2,2C75.2,66,72.7,62.9,72.7,57.9z M83,60.8v-6.2c-0.9-0.8-1.6-1-2.6-1c-1.6,0-3.1,1.3-3.1,4.2c0,3,1.1,4.4,3,4.4
		C81.4,62.2,82.2,61.8,83,60.8z"/>
</g>
</svg>
