<?xml version="1.0" encoding="utf-8"?>
<!-- Generator: Adobe Illustrator 27.5.0, SVG Export Plug-In . SVG Version: 6.00 Build 0)  -->
<svg version="1.1" id="Layer_1" xmlns="http://www.w3.org/2000/svg" xmlns:xlink="http://www.w3.org/1999/xlink" x="0px" y="0px"
	 viewBox="0 0 109 109" style="enable-background:new 0 0 109 109;" xml:space="preserve">
<style type="text/css">
	.st0{fill-rule:evenodd;clip-rule:evenodd;fill:#E4531C;}
	.st1{fill-rule:evenodd;clip-rule:evenodd;fill:#FFFFFF;}
</style>
<path class="st0" d="M90,0H19C8.5,0,0,8.5,0,19v71c0,10.5,8.5,19,19,19h71c10.5,0,19-8.5,19-19V19C109,8.5,100.5,0,90,0z"/>
<g id="_x2E_platform_x2F_icon_x2F_chart">
	<g id="Combined-Shape">
		<path class="st1" d="M34.3,52.8c1.9,0,3.4,1.5,3.4,3.4v20.2c0,1.9-1.5,3.4-3.4,3.4c-1.9,0-3.4-1.5-3.4-3.4V56.2
			C30.9,54.3,32.4,52.8,34.3,52.8z M47.8,62.9c1.9,0,3.4,1.5,3.4,3.4v10.1c0,1.9-1.5,3.4-3.4,3.4s-3.4-1.5-3.4-3.4V66.3
			C44.4,64.4,45.9,62.9,47.8,62.9z M61.2,42.7c1.9,0,3.4,1.5,3.4,3.4v30.4c0,1.9-1.5,3.4-3.4,3.4s-3.4-1.5-3.4-3.4V46.1
			C57.9,44.2,59.4,42.7,61.2,42.7z M74.7,29.2c1.9,0,3.4,1.5,3.4,3.4v43.9c0,1.9-1.5,3.4-3.4,3.4s-3.4-1.5-3.4-3.4V32.6
			C71.4,30.7,72.9,29.2,74.7,29.2z"/>
	</g>
</g>
</svg>
