<?xml version="1.0" encoding="utf-8"?>
<!-- Generator: Adobe Illustrator 26.0.2, SVG Export Plug-In . SVG Version: 6.00 Build 0)  -->
<svg version="1.1" id="Layer_1" xmlns="http://www.w3.org/2000/svg" xmlns:xlink="http://www.w3.org/1999/xlink" x="0px" y="0px"
	 viewBox="0 0 109 109" style="enable-background:new 0 0 109 109;" xml:space="preserve">
<style type="text/css">
	.st0{fill-rule:evenodd;clip-rule:evenodd;fill:#A4C14C;}
	.st1{fill-rule:evenodd;clip-rule:evenodd;fill:#FFFFFF;}
</style>
<desc>Created with Sketch.</desc>
<g id="fps-rich-text">
	<g id="FEB_x2F_component_x2F_cards">
		<g id="Group-2">
			<g id="Group">
				<path id="Rectangle_1_" class="st0" d="M0,19C0,8.5,8.5,0,19,0h71c10.5,0,19,8.5,19,19v71c0,10.5-8.5,19-19,19H19
					c-10.5,0-19-8.5-19-19"/>
			</g>
		</g>
	</g>
</g>
<g id="_x2E_platform_x2F_icon_x2F_info">
	<g id="Combined-Shape">
		<path class="st1" d="M55.4,24.1c17.3,0,31.2,14,31.2,31.2s-14,31.3-31.2,31.3s-31.3-14-31.3-31.3S38.1,24.1,55.4,24.1z M55.4,31.1
			c-13.4,0-24.3,10.9-24.3,24.3S42,79.7,55.4,79.7s24.3-10.9,24.3-24.3S68.8,31.1,55.4,31.1z M55.4,51.9c1.9,0,3.5,1.6,3.5,3.5v10.4
			c0,1.9-1.6,3.5-3.5,3.5c-1.9,0-3.5-1.6-3.5-3.5V55.4C51.9,53.5,53.5,51.9,55.4,51.9z M55.4,41.5c1.9,0,3.5,1.6,3.5,3.5
			c0,1.9-1.6,3.5-3.5,3.5c-1.9,0-3.5-1.6-3.5-3.5C51.9,43,53.5,41.5,55.4,41.5z"/>
	</g>
</g>
</svg>
