<?xml version="1.0" encoding="utf-8"?>
<!-- Generator: Adobe Illustrator 25.0.0, SVG Export Plug-In . SVG Version: 6.00 Build 0)  -->
<svg version="1.1" id="Layer_1" xmlns="http://www.w3.org/2000/svg" xmlns:xlink="http://www.w3.org/1999/xlink" x="0px" y="0px"
	 viewBox="0 0 109 109" style="enable-background:new 0 0 109 109;" xml:space="preserve">
<style type="text/css">
	.st0{fill-rule:evenodd;clip-rule:evenodd;fill:#EF6160;}
	.st1{fill-rule:evenodd;clip-rule:evenodd;fill:#FFFFFF;}
</style>
<desc>Created with Sketch.</desc>
<g id="Group">
	<path id="Rectangle" class="st0" d="M19,0h71c10.5,0,19,8.5,19,19v71c0,10.5-8.5,19-19,19H19c-10.5,0-19-8.5-19-19V19
		C0,8.5,8.5,0,19,0z"/>
	<g id="Platform">
		<g id="FPS" transform="translate(-321.000000, -23.000000)">
			<g id="_x2E_platform_x2F_icon_x2F_play" transform="translate(309.000000, 13.000000)">
				<g id="Path">
					<path class="st1" d="M45.1,50.2v32.3c0,5,4.1,9.1,9.1,9.1c1.5,0,3-0.4,4.3-1.1l30-16.2c4.4-2.4,6.1-7.9,3.7-12.3
						c-0.8-1.6-2.1-2.9-3.7-3.7l-30-16.2c-4.4-2.4-9.9-0.7-12.3,3.7C45.5,47.2,45.1,48.7,45.1,50.2z M51.2,50.2c0-0.5,0.1-1,0.4-1.4
						c0.8-1.5,2.6-2,4.1-1.2l30,16.2c0.5,0.3,1,0.7,1.2,1.2c0.8,1.5,0.2,3.3-1.2,4.1l-30,16.2c-0.4,0.2-0.9,0.4-1.4,0.4
						c-1.7,0-3-1.4-3-3V50.2z"/>
				</g>
			</g>
		</g>
	</g>
</g>
</svg>
