<?xml version="1.0" encoding="UTF-8"?>
<svg width="109px" height="109px" viewBox="0 0 109 109" version="1.1" xmlns="http://www.w3.org/2000/svg" xmlns:xlink="http://www.w3.org/1999/xlink">
    <!-- Generator: Sketch 63.1 (92452) - https://sketch.com -->
    <title>fps-chat</title>
    <desc>Created with Sketch.</desc>
    <g id="Symbols" stroke="none" stroke-width="1" fill="none" fill-rule="evenodd">
        <g id="FEB/component/chat">
            <g id="fps-chat">
                <g id="FEB/component/cards">
                    <g id="Group-2">
                        <g id="Group">
                            <rect id="Rectangle" fill="#254895" x="0" y="0" width="109" height="109" rx="19"></rect>
                            <g id=".platform/icon/bubble" transform="translate(11.000000, 12.000000)" fill="#FFFFFF">
                                <g id="Combined-Shape">
                                    <path d="M41.6560329,18.8125 C54.2721677,18.8125 64.4995658,29.039898 64.4995658,41.6560329 C64.4995658,43.9341518 63.497809,47.9850951 62.6201617,50.4988379 C63.2139625,52.1910031 63.7435279,54.1513945 64.3715044,57.1654598 C65.2654892,61.4562706 61.4715553,65.2586744 57.1787616,64.3742604 C54.1433379,63.7488934 51.9900895,63.2223791 50.2265794,62.7117142 C47.6122432,63.5816782 43.6221707,64.4995658 41.6560329,64.4995658 C29.039898,64.4995658 18.8125,54.2721677 18.8125,41.6560329 C18.8125,29.039898 29.039898,18.8125 41.6560329,18.8125 Z M41.65625,24.1875 C32.0085258,24.1875 24.1875,32.0085258 24.1875,41.65625 C24.1875,51.3039742 32.0085258,59.125 41.65625,59.125 C43.5546582,59.125 48.8524435,57.6058322 49.6775208,57.1786025 C50.8589809,56.5668356 49.6775208,57.1786025 59.125,59.125 C57.1629238,49.7077276 56.113885,51.7239988 57.1629238,49.7077276 C57.340983,49.3654946 59.125,44.1475778 59.125,41.65625 C59.125,32.0085258 51.3039742,24.1875 41.65625,24.1875 Z M47.03125,43 C48.5155153,43 49.71875,44.2032347 49.71875,45.6875 C49.71875,47.1717653 48.5155153,48.375 47.03125,48.375 L36.28125,48.375 C34.7969847,48.375 33.59375,47.1717653 33.59375,45.6875 C33.59375,44.2032347 34.7969847,43 36.28125,43 L47.03125,43 Z M47.03125,34.9375 C48.5155153,34.9375 49.71875,36.1407347 49.71875,37.625 C49.71875,39.1092653 48.5155153,40.3125 47.03125,40.3125 L36.28125,40.3125 C34.7969847,40.3125 33.59375,39.1092653 33.59375,37.625 C33.59375,36.1407347 34.7969847,34.9375 36.28125,34.9375 L47.03125,34.9375 Z"></path>
                                </g>
                            </g>
                        </g>
                    </g>
                </g>
            </g>
        </g>
    </g>
</svg>