<?xml version="1.0" encoding="UTF-8"?>
<svg width="109px" height="109px" viewBox="0 0 109 109" version="1.1" xmlns="http://www.w3.org/2000/svg" xmlns:xlink="http://www.w3.org/1999/xlink">
    <!-- Generator: Sketch 63.1 (92452) - https://sketch.com -->
    <title>fps-soon</title>
    <desc>Created with Sketch.</desc>
    <g id="Symbols" stroke="none" stroke-width="1" fill="none" fill-rule="evenodd">
        <g id="FEB/component/coming">
            <g id="fps-soon">
                <g id="Group">
                    <rect id="Rectangle" fill="#E3E3E3" x="0" y="0" width="109" height="109" rx="19"></rect>
                    <g id=".platform/icon/clocks" transform="translate(14.000000, 14.000000)" fill="#FFFFFF">
                        <g id="Combined-Shape">
                            <path d="M41,17.9375 C53.737067,17.9375 64.0625,28.262933 64.0625,41 C64.0625,53.737067 53.737067,64.0625 41,64.0625 C28.262933,64.0625 17.9375,53.737067 17.9375,41 C17.9375,28.262933 28.262933,17.9375 41,17.9375 Z M41,23.0625 C31.0933923,23.0625 23.0625,31.0933923 23.0625,41 C23.0625,50.9066077 31.0933923,58.9375 41,58.9375 C50.9066077,58.9375 58.9375,50.9066077 58.9375,41 C58.9375,31.0933923 50.9066077,23.0625 41,23.0625 Z M41,28.1875 C42.4152297,28.1875 43.5625,29.3347703 43.5625,30.75 L43.5625,39.9385 L50.4994611,46.8755389 C51.5001796,47.8762574 51.5001796,49.4987426 50.4994611,50.4994611 C49.4987426,51.5001796 47.8762574,51.5001796 46.8755389,50.4994611 L39.1880389,42.8119611 L39.0842166,42.7018582 C39.0801702,42.6973065 39.0761398,42.6927403 39.0721254,42.6881596 L39.1880389,42.8119611 C39.1345843,42.7585066 39.0839852,42.703278 39.0362413,42.6464648 C39.0129934,42.6186238 38.9901391,42.5901942 38.9678882,42.5612763 C38.9525888,42.5416698 38.937944,42.5220762 38.923616,42.5023243 C38.9028398,42.473338 38.8822766,42.4436835 38.8623321,42.4135833 C38.8545973,42.4023155 38.8471982,42.3909548 38.8398985,42.3795488 C38.8164042,42.3424216 38.7936065,42.3046999 38.7717698,42.2663597 C38.763578,42.2523747 38.7557456,42.2383005 38.748056,42.2241692 C38.7331184,42.1963621 38.7185693,42.1684389 38.7045253,42.1402201 C38.6272686,41.9850562 38.5667979,41.8234618 38.5230785,41.6583529 C38.5186129,41.6423264 38.5145226,41.6262646 38.5105849,41.610143 C38.5064172,41.5921453 38.502159,41.5738373 38.4981043,41.5554934 C38.4896462,41.5182576 38.4822594,41.4808906 38.4756943,41.4432412 C38.4722982,41.4225963 38.4689505,41.4019481 38.4658561,41.3812693 C38.4608699,41.3491115 38.4566326,41.3164511 38.4530161,41.2836038 C38.450089,41.2559514 38.4475019,41.2285409 38.4453549,41.2011024 C38.4435895,41.1794242 38.4421577,41.1573618 38.4410068,41.135225 C38.4392302,41.1004978 38.4381203,41.0661663 38.4376964,41.0318279 C38.4375662,41.0214885 38.4375,41.010752 38.4375,41 L38.4375,30.75 C38.4375,29.3347703 39.5847703,28.1875 41,28.1875 Z"></path>
                        </g>
                    </g>
                </g>
            </g>
        </g>
    </g>
</svg>