<?xml version="1.0" encoding="utf-8"?>
<!-- Generator: Adobe Illustrator 27.5.0, SVG Export Plug-In . SVG Version: 6.00 Build 0)  -->
<svg version="1.1" id="Layer_1" xmlns="http://www.w3.org/2000/svg" xmlns:xlink="http://www.w3.org/1999/xlink" x="0px" y="0px"
	 viewBox="0 0 109 109" style="enable-background:new 0 0 109 109;" xml:space="preserve">
<style type="text/css">
	.st0{fill-rule:evenodd;clip-rule:evenodd;fill:#E4531C;}
</style>
<path class="st0" d="M90,0H19C8.5,0,0,8.5,0,19v71c0,10.5,8.5,19,19,19h71c10.5,0,19-8.5,19-19V19C109,8.5,100.5,0,90,0z M36.3,78.1
	c0,2-1.6,3.6-3.6,3.6c-2,0-3.6-1.6-3.6-3.6V56.3c0-2,1.6-3.6,3.6-3.6c2,0,3.6,1.6,3.6,3.6V78.1z M50.9,78.1c0,2-1.6,3.6-3.6,3.6
	c-2,0-3.6-1.6-3.6-3.6V67.2c0-2,1.6-3.6,3.6-3.6c2,0,3.6,1.6,3.6,3.6V78.1z M65.4,78.1c0,2-1.6,3.6-3.6,3.6c-2,0-3.6-1.6-3.6-3.6
	V45.4c0-2,1.6-3.6,3.6-3.6c2,0,3.6,1.6,3.6,3.6V78.1z M79.9,78.1c0,2-1.6,3.6-3.6,3.6c-2,0-3.6-1.6-3.6-3.6V30.9
	c0-2,1.6-3.6,3.6-3.6c2,0,3.6,1.6,3.6,3.6V78.1z"/>
</svg>
