<?xml version="1.0" encoding="UTF-8"?>
<svg width="109px" height="109px" viewBox="0 0 109 109" version="1.1" xmlns="http://www.w3.org/2000/svg" xmlns:xlink="http://www.w3.org/1999/xlink">
    <!-- Generator: Sketch 63.1 (92452) - https://sketch.com -->
    <title>fps-payment</title>
    <desc>Created with Sketch.</desc>
    <g id="Symbols" stroke="none" stroke-width="1" fill="none" fill-rule="evenodd">
        <g id="FEB/component/payment">
            <g id="fps-payment">
                <g id="FEB/component/cards">
                    <g id="Group-2">
                        <g id="Group">
                            <rect id="Rectangle" fill="#773C2A" x="0" y="0" width="109" height="109" rx="19"></rect>
                            <g id=".platform/icon/creditcard" transform="translate(11.000000, 12.000000)" fill="#FFFFFF">
                                <g id="Combined-Shape">
                                    <path d="M61.8125,24.1875 C66.2652958,24.1875 69.875,27.7972042 69.875,32.25 L69.875,53.75 C69.875,58.2027958 66.2652958,61.8125 61.8125,61.8125 L24.1875,61.8125 C19.7347042,61.8125 16.125,58.2027958 16.125,53.75 L16.125,32.25 C16.125,27.7972042 19.7347042,24.1875 24.1875,24.1875 L61.8125,24.1875 Z M64.5,42.9995 L21.5,42.9995 L21.5,53.75 C21.5,55.2342653 22.7032347,56.4375 24.1875,56.4375 L61.8125,56.4375 C63.2967653,56.4375 64.5,55.2342653 64.5,53.75 L64.5,42.9995 Z M61.8125,29.5625 L24.1875,29.5625 C22.7032347,29.5625 21.5,30.7657347 21.5,32.25 L21.5,34.9375 L64.5,34.9375 L64.5,32.25 C64.5,30.7657347 63.2967653,29.5625 61.8125,29.5625 Z"></path>
                                </g>
                            </g>
                        </g>
                    </g>
                </g>
            </g>
        </g>
    </g>
</svg>