<?xml version="1.0" encoding="UTF-8"?>
<svg width="109px" height="109px" viewBox="0 0 109 109" version="1.1" xmlns="http://www.w3.org/2000/svg" xmlns:xlink="http://www.w3.org/1999/xlink">
    <!-- Generator: Sketch 63.1 (92452) - https://sketch.com -->
    <title>fps-form</title>
    <desc>Created with Sketch.</desc>
    <g id="Symbols" stroke="none" stroke-width="1" fill="none" fill-rule="evenodd">
        <g id="FEB/component/form">
            <g id="fps-form">
                <g id="Group">
                    <rect id="Rectangle" fill="#6B1B9A" x="0" y="0" width="109" height="109" rx="19"></rect>
                    <g id=".platform/icon/menu" transform="translate(12.000000, 12.000000)" fill="#FFFFFF">
                        <g id="Combined-Shape">
                            <path d="M66.1875,53.75 C66.7397847,53.75 67.1875,54.1977153 67.1875,54.75 L67.1875,58.125 C67.1875,58.6772847 66.7397847,59.125 66.1875,59.125 L19.8125,59.125 C19.2602153,59.125 18.8125,58.6772847 18.8125,58.125 L18.8125,54.75 C18.8125,54.1977153 19.2602153,53.75 19.8125,53.75 L66.1875,53.75 Z M66.1875,40.3125 C66.7397847,40.3125 67.1875,40.7602153 67.1875,41.3125 L67.1875,44.6875 C67.1875,45.2397847 66.7397847,45.6875 66.1875,45.6875 L19.8125,45.6875 C19.2602153,45.6875 18.8125,45.2397847 18.8125,44.6875 L18.8125,41.3125 C18.8125,40.7602153 19.2602153,40.3125 19.8125,40.3125 L66.1875,40.3125 Z M66.1875,26.875 C66.7397847,26.875 67.1875,27.3227153 67.1875,27.875 L67.1875,31.25 C67.1875,31.8022847 66.7397847,32.25 66.1875,32.25 L19.8125,32.25 C19.2602153,32.25 18.8125,31.8022847 18.8125,31.25 L18.8125,27.875 C18.8125,27.3227153 19.2602153,26.875 19.8125,26.875 L66.1875,26.875 Z"></path>
                        </g>
                    </g>
                </g>
            </g>
        </g>
    </g>
</svg>