<?xml version="1.0" encoding="UTF-8" standalone="no"?>
<svg
   width="109px"
   height="109px"
   viewBox="0 0 109 109"
   version="1.1"
   id="svg1"
   sodipodi:docname="fps-form2.svg"
   inkscape:version="1.3.1 (91b66b0, 2023-11-16)"
   xml:space="preserve"
   xmlns:inkscape="http://www.inkscape.org/namespaces/inkscape"
   xmlns:sodipodi="http://sodipodi.sourceforge.net/DTD/sodipodi-0.dtd"
   xmlns="http://www.w3.org/2000/svg"
   xmlns:svg="http://www.w3.org/2000/svg"><defs
     id="defs1" /><sodipodi:namedview
     id="namedview1"
     pagecolor="#ffffff"
     bordercolor="#000000"
     borderopacity="0.25"
     inkscape:showpageshadow="2"
     inkscape:pageopacity="0.0"
     inkscape:pagecheckerboard="0"
     inkscape:deskcolor="#d1d1d1"
     inkscape:zoom="2.1651376"
     inkscape:cx="73.205509"
     inkscape:cy="48.957627"
     inkscape:window-width="1296"
     inkscape:window-height="769"
     inkscape:window-x="90"
     inkscape:window-y="85"
     inkscape:window-maximized="0"
     inkscape:current-layer="FEB/component/form" /><!-- Generator: Sketch 63.1 (92452) - https://sketch.com --><title
     id="title1">fps-form</title><desc
     id="desc1">Created with Sketch.</desc><g
     id="Symbols"
     stroke="none"
     stroke-width="1"
     fill="none"
     fill-rule="evenodd"><g
       id="FEB/component/form"><rect
         id="Rectangle"
         fill="#6B1B9A"
         x="0"
         y="0"
         width="109"
         height="109"
         rx="19"
         style="fill:#9467dd;fill-opacity:1" /><path
         d="M 76.746965,88.986636 H 33.638628 a 8.4677088,8.4677088 0 0 1 -8.46771,-8.467709 V 31.252261 a 8.4677088,8.4677088 0 0 1 8.46771,-8.467709 h 43.108337 a 8.4677088,8.4677088 0 0 1 8.46771,8.467709 v 49.266666 a 8.4677088,8.4677088 0 0 1 -8.46771,8.467709 z M 33.638628,27.403301 a 3.8489585,3.8489585 0 0 0 -3.848958,3.84896 v 49.266666 a 3.8489585,3.8489585 0 0 0 3.848958,3.84896 h 43.108337 a 3.8489585,3.8489585 0 0 0 3.848958,-3.84896 V 31.252261 a 3.8489585,3.8489585 0 0 0 -3.848958,-3.84896 z m 9.2375,17.02779 7.697918,-7.697913 A 2.3093752,2.3093752 0 0 0 47.402504,33.46926 l -6.158334,6.158332 -3.079166,-3.079167 a 2.3093752,2.3093752 0 0 0 -3.079166,3.263918 l 4.711125,4.618748 a 2.3093752,2.3093752 0 0 0 3.079165,0 z M 75.977173,39.719967 A 2.3401668,2.3401668 0 0 0 73.667796,37.410593 H 58.271963 a 2.3093752,2.3093752 0 0 0 0,4.618748 h 15.395833 a 2.3401668,2.3401668 0 0 0 2.309377,-2.309374 z M 42.876128,61.36651 50.574046,53.668593 a 2.3093752,2.3093752 0 0 0 -3.263917,-3.263918 l -6.158332,6.158335 -3.079169,-3.079166 a 2.3093752,2.3093752 0 0 0 -3.263915,3.263917 l 4.98825,4.618749 a 2.3093752,2.3093752 0 0 0 3.263918,0 z m 33.00867,-4.711124 A 2.3401668,2.3401668 0 0 0 73.667796,54.346011 H 58.271963 a 2.3093752,2.3093752 0 0 0 0,4.618749 h 15.395833 a 2.3401668,2.3401668 0 0 0 2.309377,-2.309374 z m -33.00867,21.646542 7.697918,-7.697917 a 2.3093752,2.3093752 0 1 0 -3.263917,-3.263918 l -6.158332,6.158335 -3.079169,-3.079166 a 2.3093752,2.3093752 0 0 0 -3.263915,3.263914 l 4.98825,4.618752 a 2.3093752,2.3093752 0 0 0 3.263918,0 z m 33.00867,-4.711124 A 2.3401668,2.3401668 0 0 0 73.667796,71.281426 H 58.271963 a 2.3093765,2.3093765 0 0 0 0,4.618753 h 15.395833 a 2.3401668,2.3401668 0 0 0 2.309377,-2.309375 z"
         id="path1"
         style="fill:#ffffff;fill-opacity:1;stroke-width:3.07916" /></g></g></svg>
