<?xml version="1.0" encoding="utf-8"?>
<!-- Generator: Adobe Illustrator 26.0.1, SVG Export Plug-In . SVG Version: 6.00 Build 0)  -->
<svg version="1.1" id="Layer_1" xmlns="http://www.w3.org/2000/svg" xmlns:xlink="http://www.w3.org/1999/xlink" x="0px" y="0px"
	 viewBox="0 0 1024 1024" style="enable-background:new 0 0 1024 1024;" xml:space="preserve">
<style type="text/css">
	.st0{fill:#FF525B;}
</style>
<path class="st0" d="M766.9,378.9c-3.4-94.9-64.4-169.4-150.8-220.2s-211.8-25.4-306.6,94.9s-13.6,255.8,1.7,318.5
	S511,802.4,511,802.4s108.4-71.2,142.3-105C687.2,663.5,770.2,473.8,766.9,378.9z M513.6,495.8c-60.3,0-109.3-48.9-109.3-109.3
	c0-60.3,48.9-109.3,109.3-109.3c60.3,0,109.3,48.9,109.3,109.3C622.9,446.9,573.9,495.8,513.6,495.8z"/>
<g id="icomoon-ignore">
</g>
<g>
	<path d="M514,258.2c-76.5,0-138.7,62.2-138.7,138.7S437.5,535.6,514,535.6s138.7-62.2,138.7-138.7S590.5,258.2,514,258.2z
		 M581.2,396.9c0,37.1-30.2,67.2-67.2,67.2s-67.2-30.2-67.2-67.2s30.2-67.2,67.2-67.2S581.2,359.8,581.2,396.9z"/>
	<path d="M514,103.7c-161.7,0-293.2,131.5-293.2,293.2c0,50.9,13.9,105.3,41.2,161.7c21.8,45,52.3,91.6,90.5,138.3
		c65.4,79.9,131.8,133.9,139.2,139.8h0.1c6.3,5,14.2,7.8,22.3,7.8c8,0,15.9-2.7,22.3-7.7l0.1-0.1c7.4-6,74.3-60.6,139.1-139.8
		c38.3-46.7,68.7-93.3,90.5-138.3c27.3-56.4,41.2-110.9,41.2-161.7C807.2,235.2,675.7,103.7,514,103.7z M735.7,396.9
		c0,151.9-161.8,311.1-221.7,364.8c-30.4-27.2-82.2-77.1-128.5-139C323.6,540,292.3,464,292.3,396.9c0-122.3,99.5-221.7,221.7-221.7
		S735.7,274.6,735.7,396.9z"/>
</g>
</svg>
